{"glyphs":{"0":{"ha":974,"x_min":68,"x_max":903,"o":"m 878 581 q 903 415 903 500 q 788 91 903 213 q 485 -31 672 -31 q 174 103 289 -31 q 68 415 68 224 q 172 725 68 601 q 485 861 286 861 q 731 788 626 861 q 878 581 836 715 m 639 258 q 647 415 647 322 q 613 682 647 586 q 486 792 574 792 q 358 683 399 792 q 324 415 324 592 q 357 150 324 249 q 485 38 396 38 q 560 65 528 38 q 639 258 619 118 z "},"1":{"ha":681,"x_min":79,"x_max":642,"o":"m 642 3 l 82 3 l 82 63 q 207 82 172 69 q 251 161 251 99 l 251 656 l 79 656 l 79 729 l 117 729 q 290 779 222 729 q 368 867 336 814 l 488 867 q 481 626 481 714 l 481 169 q 519 90 481 111 q 642 63 558 69 l 642 3 z "},"2":{"ha":869,"x_min":76,"x_max":811,"o":"m 811 0 l 76 0 l 76 142 q 299 328 167 247 q 421 408 390 383 q 506 525 488 464 q 517 606 517 561 q 368 797 517 797 q 289 781 325 797 q 318 624 318 679 q 284 535 318 568 q 196 501 250 501 q 113 543 143 501 q 85 633 85 579 q 200 811 85 744 q 415 868 297 868 q 772 601 772 868 q 669 406 772 474 q 451 317 606 361 q 246 224 314 278 l 246 215 l 811 215 l 811 0 z "},"3":{"ha":868,"x_min":35,"x_max":797,"o":"m 771 329 q 797 229 797 288 q 640 19 797 92 q 364 -37 518 -37 q 160 1 256 -37 q 35 146 35 53 q 69 222 35 193 q 149 249 100 249 q 232 226 197 249 q 271 154 271 200 q 240 32 271 111 q 335 19 271 19 q 476 69 425 19 q 538 231 538 126 q 369 401 538 401 l 283 401 l 283 475 l 344 475 q 506 658 506 475 q 363 810 506 810 q 276 796 311 810 q 306 675 306 715 q 267 603 306 628 q 185 581 235 581 q 106 608 138 581 q 74 683 74 636 q 206 828 74 778 q 415 865 304 865 q 690 792 597 865 q 757 663 757 738 q 707 543 757 594 q 517 454 646 478 l 517 444 q 771 329 700 433 z "},"4":{"ha":901,"x_min":33,"x_max":856,"o":"m 856 235 l 710 235 l 710 0 l 482 0 l 482 235 l 33 235 l 33 342 l 521 865 l 710 865 l 710 357 l 856 357 l 856 235 m 482 357 l 482 728 l 138 357 l 482 357 z "},"5":{"ha":832,"x_min":38,"x_max":774,"o":"m 774 288 q 638 54 774 138 q 363 -17 522 -17 q 163 21 257 -17 q 38 164 38 72 q 72 239 38 211 q 151 267 103 267 q 235 244 200 267 q 274 171 274 218 q 243 50 274 128 q 321 39 275 39 q 461 100 407 39 q 522 286 522 169 q 472 427 522 371 q 339 483 422 483 q 157 400 232 483 l 104 417 l 169 865 l 743 865 l 743 697 l 218 697 l 190 496 q 421 554 294 554 q 539 542 481 554 q 706 457 643 521 q 774 288 774 388 z "},"6":{"ha":900,"x_min":69,"x_max":843,"o":"m 843 288 q 715 68 843 149 q 458 0 606 0 q 183 88 290 0 q 69 346 69 181 q 271 719 69 581 q 693 861 438 835 l 708 804 l 636 793 q 407 665 486 758 q 324 471 349 596 q 565 547 424 547 q 763 475 682 547 q 843 288 843 403 m 592 271 q 563 403 592 350 q 454 469 526 469 q 318 407 369 469 q 318 371 318 396 q 317 336 317 347 q 340 161 317 235 q 458 51 376 51 q 567 129 532 51 q 592 271 592 188 z "},"7":{"ha":769,"x_min":72,"x_max":788,"o":"m 788 793 l 294 0 l 96 0 l 553 718 l 339 718 q 186 706 217 718 q 122 582 143 688 l 72 582 l 72 865 l 788 865 l 788 793 z "},"8":{"ha":939,"x_min":71,"x_max":868,"o":"m 868 250 q 718 51 868 118 q 454 0 603 0 q 213 43 318 0 q 71 219 71 103 q 306 414 71 368 q 108 636 108 490 q 247 814 108 751 q 485 863 354 863 q 701 822 606 863 q 831 663 831 768 q 622 481 831 533 q 868 250 868 406 m 604 664 q 570 771 604 729 q 472 813 536 813 q 375 778 414 813 q 336 688 336 744 q 401 579 336 619 q 574 501 424 565 q 604 664 604 561 m 640 192 q 563 307 640 263 q 460 353 524 328 q 354 393 363 390 q 297 231 297 338 q 344 100 297 149 q 472 51 392 51 q 592 87 544 51 q 640 192 640 122 z "},"9":{"ha":900,"x_min":57,"x_max":831,"o":"m 831 513 q 628 140 831 278 q 207 0 464 29 l 192 57 l 264 68 q 492 194 418 106 q 576 386 554 268 q 335 314 479 314 q 181 356 250 314 q 78 471 111 397 q 57 578 57 519 q 186 793 57 714 q 442 861 296 861 q 718 774 613 861 q 831 513 831 679 m 583 522 q 560 699 583 624 q 443 810 524 810 q 335 732 369 810 q 308 590 308 675 q 338 457 308 513 q 447 388 375 388 q 581 451 532 388 q 582 461 581 454 q 583 522 583 483 z "}," ":{"ha":463,"x_min":0,"x_max":0,"o":""},"!":{"ha":522,"x_min":129,"x_max":393,"o":"m 393 856 q 358 674 393 817 q 288 314 318 508 l 235 314 q 140 778 225 378 q 129 856 129 829 q 168 945 129 908 q 261 982 207 982 q 353 945 314 982 q 393 856 393 908 m 392 106 q 353 17 392 54 q 261 -19 314 -19 q 169 17 208 -19 q 131 106 131 53 q 170 195 131 158 q 261 232 210 232 q 353 195 314 232 q 392 106 392 158 z "},"\"":{"ha":708,"x_min":82,"x_max":626,"o":"m 626 928 q 589 749 626 879 q 538 558 543 586 l 492 558 q 439 747 486 583 q 403 928 403 876 q 434 1008 403 978 q 515 1038 465 1038 q 595 1007 564 1038 q 626 928 626 976 m 306 928 q 268 749 306 879 q 217 558 222 586 l 171 558 q 118 747 165 583 q 82 928 82 876 q 113 1008 82 978 q 194 1038 144 1038 q 274 1007 243 1038 q 306 928 306 976 z "},"#":{"ha":976,"x_min":106,"x_max":871,"o":"m 871 507 l 694 507 l 640 333 l 831 333 l 831 225 l 608 225 l 540 0 l 439 0 l 507 225 l 351 225 l 283 0 l 182 0 l 250 225 l 106 225 l 106 333 l 283 333 l 336 507 l 146 507 l 146 615 l 369 615 l 439 847 l 540 847 l 469 615 l 626 615 l 696 847 l 797 847 l 726 615 l 871 615 l 871 507 m 594 508 l 436 508 l 383 332 l 540 332 l 594 508 z "},"$":{"ha":890,"x_min":72,"x_max":818,"o":"m 818 279 q 714 68 818 149 q 485 -12 622 -3 l 485 -203 l 417 -203 l 417 -12 q 201 38 303 -10 q 72 199 72 99 q 102 281 72 249 q 182 314 132 314 q 266 287 233 314 q 299 208 299 260 q 268 85 299 165 q 417 46 343 46 l 417 350 q 289 372 317 364 q 174 433 222 390 q 97 607 97 500 q 169 785 97 707 q 417 886 254 875 l 417 1033 l 485 1033 l 485 886 q 681 843 594 882 q 796 697 796 792 q 767 619 796 650 q 690 588 738 588 q 579 688 579 588 q 608 806 579 718 q 485 828 569 825 l 485 550 q 538 543 486 550 q 818 279 818 503 m 417 557 l 417 828 q 308 790 351 821 q 258 693 258 754 q 389 561 258 581 q 417 557 399 560 m 660 199 q 521 339 660 313 q 485 344 515 339 l 485 46 q 660 199 660 63 z "},"%":{"ha":1221,"x_min":61,"x_max":1160,"o":"m 590 736 q 515 553 590 624 q 326 483 439 483 q 137 553 213 483 q 61 736 61 624 q 137 919 61 849 q 325 990 213 990 q 515 919 439 990 q 590 736 590 849 m 410 735 q 325 940 410 940 q 242 742 242 940 q 328 532 242 532 q 410 735 410 532 m 1160 231 q 1085 47 1160 118 q 896 -24 1010 -24 q 707 47 782 -24 q 632 231 632 117 q 707 413 632 343 q 896 483 782 483 q 1084 413 1008 483 q 1160 231 1160 343 m 981 229 q 894 435 981 435 q 811 235 811 435 q 897 26 811 26 q 981 229 981 26 m 1068 968 l 265 0 l 154 0 l 956 968 l 1068 968 z "},"&":{"ha":708,"x_min":0,"x_max":0,"o":""},"'":{"ha":374,"x_min":75,"x_max":299,"o":"m 299 928 q 263 749 299 879 q 210 558 215 586 l 164 558 q 111 747 158 583 q 75 928 75 876 q 106 1008 75 978 q 188 1038 138 1038 q 267 1007 236 1038 q 299 928 299 976 z "},"(":{"ha":621,"x_min":78,"x_max":575,"o":"m 575 -222 q 233 -47 368 -196 q 78 408 78 125 q 233 864 78 693 q 575 1039 369 1013 l 575 978 q 310 408 310 929 q 575 -161 310 -112 l 575 -222 z "},")":{"ha":621,"x_min":46,"x_max":543,"o":"m 543 408 q 388 -47 543 124 q 46 -222 253 -196 l 46 -161 q 311 408 311 -112 q 46 978 311 929 l 46 1039 q 388 864 253 1013 q 543 408 543 693 z "},"*":{"ha":669,"x_min":56,"x_max":615,"o":"m 615 735 q 554 676 615 676 q 468 693 535 676 q 371 714 393 711 q 449 628 410 671 q 506 539 506 565 q 486 500 506 517 q 444 483 467 483 q 394 517 413 483 q 365 599 385 533 q 335 693 343 674 q 276 517 313 617 q 226 483 256 483 q 184 500 203 483 q 165 539 165 517 q 221 628 165 565 q 299 714 260 671 q 203 693 276 711 q 115 676 136 676 q 56 735 56 676 q 115 793 56 793 q 207 778 147 793 q 299 757 275 760 q 221 842 260 800 q 165 931 165 906 q 184 969 165 953 q 226 986 203 986 q 276 956 257 986 q 306 871 286 936 q 335 778 328 796 q 372 888 357 833 l 374 894 q 388 940 385 933 q 415 978 397 967 q 444 986 429 986 q 487 970 468 986 q 506 931 506 954 q 450 842 506 906 q 372 757 411 799 q 468 776 392 760 q 554 793 538 793 q 615 735 615 793 z "},"+":{"ha":976,"x_min":111,"x_max":865,"o":"m 865 474 l 544 474 l 544 153 l 432 153 l 432 474 l 111 474 l 111 583 l 432 583 l 432 904 l 544 904 l 544 583 l 865 583 l 865 474 z "},",":{"ha":456,"x_min":93,"x_max":365,"o":"m 365 36 q 289 -143 365 -53 q 131 -264 221 -222 l 100 -215 q 215 -131 179 -174 q 271 0 265 -72 l 232 0 q 93 117 93 0 q 128 197 93 164 q 210 231 164 231 q 365 36 365 231 z "},"-":{"ha":526,"x_min":58,"x_max":468,"o":"m 468 294 l 58 294 l 58 444 l 468 444 l 468 294 z "},"‐":{"ha":526,"x_min":58,"x_max":468,"o":"m 468 294 l 58 294 l 58 444 l 468 444 l 468 294 z "},".":{"ha":456,"x_min":94,"x_max":363,"o":"m 363 113 q 323 19 363 58 q 229 -19 283 -19 q 134 19 174 -19 q 94 113 94 58 q 134 207 94 168 q 229 246 174 246 q 323 206 283 246 q 363 113 363 167 z "},"/":{"ha":656,"x_min":18,"x_max":608,"o":"m 608 967 l 140 -221 l 18 -221 l 486 967 l 608 967 z "},":":{"ha":510,"x_min":121,"x_max":389,"o":"m 389 542 q 349 449 389 488 q 256 410 310 410 q 160 449 200 410 q 121 542 121 488 q 160 636 121 597 q 256 675 200 675 q 349 635 310 675 q 389 542 389 596 m 389 113 q 349 19 389 58 q 256 -19 310 -19 q 160 19 200 -19 q 121 113 121 58 q 160 207 121 168 q 256 246 200 246 q 349 206 310 246 q 389 113 389 167 z "},";":{"ha":510,"x_min":119,"x_max":393,"o":"m 389 542 q 349 449 389 488 q 256 410 310 410 q 160 449 200 410 q 121 542 121 488 q 160 636 121 597 q 256 675 200 675 q 349 635 310 675 q 389 542 389 596 m 393 36 q 315 -143 393 -53 q 157 -264 247 -222 l 128 -215 q 243 -131 206 -174 q 297 0 292 -72 l 260 0 q 119 117 119 0 q 155 197 119 164 q 238 231 190 231 q 393 36 393 231 z "},"<":{"ha":976,"x_min":142,"x_max":819,"o":"m 819 4 l 142 343 l 142 438 l 819 776 l 819 649 l 288 390 l 819 132 l 819 4 z "},"=":{"ha":976,"x_min":125,"x_max":851,"o":"m 851 475 l 125 475 l 125 585 l 851 585 l 851 475 m 851 194 l 125 194 l 125 304 l 851 304 l 851 194 z "},">":{"ha":976,"x_min":157,"x_max":835,"o":"m 835 343 l 157 4 l 157 132 l 690 390 l 157 649 l 157 776 l 835 438 l 835 343 z "},"?":{"ha":761,"x_min":54,"x_max":689,"o":"m 689 703 q 586 474 689 560 q 346 385 494 397 l 342 293 l 282 293 l 282 557 q 435 618 378 565 q 492 765 492 671 q 454 882 492 836 q 347 928 417 928 q 256 904 296 928 q 281 785 281 825 q 164 686 281 686 q 84 717 114 686 q 54 799 54 749 q 165 943 54 890 q 357 985 254 985 q 588 915 496 985 q 689 703 689 839 m 444 106 q 406 17 444 54 q 315 -19 367 -19 q 223 17 263 -19 q 183 106 183 53 q 223 195 183 158 q 315 232 263 232 q 406 195 367 232 q 444 106 444 158 z "},"@":{"ha":713,"x_min":0,"x_max":0,"o":""},"A":{"ha":1053,"x_min":-37,"x_max":1092,"o":"m 1092 0 l 581 0 l 581 47 q 717 83 717 57 q 710 111 717 90 l 656 276 l 338 276 q 311 232 329 265 q 272 122 294 192 q 269 101 269 107 q 303 68 269 81 q 319 56 304 67 q 357 47 326 50 l 357 0 l -37 0 l -37 47 q 57 68 25 51 q 136 156 110 97 l 199 290 q 115 371 167 328 q 198 410 132 376 q 274 454 264 443 l 294 499 l 468 878 l 604 878 l 813 414 q 940 131 890 238 q 1046 54 969 68 q 1092 47 1071 49 l 1092 0 m 628 385 l 515 699 l 378 385 l 628 385 z "},"B":{"ha":1051,"x_min":47,"x_max":994,"o":"m 994 235 q 735 11 994 50 q 547 0 654 0 l 47 0 l 47 47 q 144 61 83 50 q 188 125 188 78 l 188 357 q 104 439 157 394 q 188 521 114 442 l 188 735 q 144 797 188 781 q 47 818 114 808 l 47 867 l 569 867 q 942 674 942 867 q 786 499 942 554 q 688 472 740 483 l 688 460 q 897 397 813 449 q 994 235 994 338 m 678 658 q 497 811 678 811 q 464 810 485 811 l 429 808 l 429 488 l 464 488 q 678 658 678 488 m 725 242 q 494 429 725 429 q 429 426 469 429 l 429 110 q 544 56 443 56 q 677 106 629 56 q 725 242 725 157 z "},"C":{"ha":993,"x_min":-31,"x_max":975,"o":"m 975 222 q 704 0 883 53 q 551 -19 639 -19 q 193 101 333 -19 q 53 357 76 200 q -31 439 22 394 q 56 522 -19 442 q 197 764 85 665 q 571 893 342 893 q 828 836 710 893 l 869 871 l 928 871 l 935 554 l 875 554 q 579 835 776 835 q 322 522 347 835 q 361 476 342 500 q 406 439 392 442 q 322 357 393 435 q 342 273 326 324 q 401 169 357 222 q 613 81 476 81 q 782 126 707 81 q 917 253 871 183 l 975 222 z "},"D":{"ha":1158,"x_min":46,"x_max":1110,"o":"m 1110 428 q 933 103 1110 217 q 532 0 774 0 l 47 0 l 47 47 q 144 58 121 50 q 188 121 188 75 l 188 358 q 104 439 157 396 q 188 521 114 442 l 188 735 q 144 800 188 782 q 46 818 110 814 l 46 867 l 557 867 q 838 815 713 867 q 1056 639 982 756 q 1110 428 1110 553 m 839 428 q 758 708 839 604 q 528 811 676 811 q 474 810 504 811 l 429 808 l 429 151 q 496 63 429 83 q 554 56 518 56 q 775 156 707 56 q 839 428 839 250 z "},"E":{"ha":1001,"x_min":47,"x_max":968,"o":"m 968 269 l 950 0 l 47 0 l 47 47 q 145 62 121 53 q 179 86 169 71 q 188 124 179 86 l 188 357 q 104 439 157 394 q 188 521 114 442 l 188 735 q 181 771 186 749 q 94 811 167 797 q 47 818 63 817 l 47 867 l 900 867 l 900 644 l 849 644 q 794 732 828 696 q 739 758 775 753 q 683 765 713 761 q 568 769 654 769 l 429 769 l 429 476 l 528 476 q 651 515 608 476 q 703 626 689 550 l 754 626 l 754 265 l 703 265 q 683 329 699 290 q 651 383 667 368 q 528 421 613 421 l 429 421 l 429 226 q 460 131 429 151 q 586 111 486 111 q 754 125 700 111 q 819 142 783 129 q 847 160 824 147 q 880 194 863 168 q 918 269 897 219 l 968 269 z "},"F":{"ha":932,"x_min":47,"x_max":911,"o":"m 911 635 l 860 635 q 804 729 838 689 q 708 778 767 771 q 640 782 700 778 q 579 783 607 783 l 429 783 l 429 471 l 524 471 q 649 510 607 471 q 700 621 690 549 l 751 621 l 751 257 l 700 257 q 681 320 697 281 q 647 376 664 360 q 524 414 608 414 l 429 414 l 428 -278 l 378 -278 q 308 -169 358 -228 q 188 -101 257 -111 l 188 357 q 104 439 157 394 q 188 521 114 442 l 188 735 q 158 790 188 774 q 94 811 140 801 q 47 818 63 817 l 47 867 l 911 867 l 911 635 z "},"G":{"ha":1121,"x_min":-31,"x_max":1118,"o":"m 1118 358 q 1040 344 1075 356 q 994 279 994 332 l 994 179 q 994 0 994 -11 l 994 -278 l 944 -278 q 874 -169 925 -228 q 754 -101 824 -111 l 754 0 q 553 -18 683 -18 q 197 97 336 -18 q 53 358 75 197 q -31 439 21 396 q 53 522 -21 443 q 86 618 60 560 q 361 863 161 794 q 582 896 461 896 q 849 839 725 896 l 892 872 l 950 872 l 956 557 l 897 557 q 774 768 844 699 q 592 822 715 822 q 390 733 451 822 q 319 451 319 632 q 371 183 319 289 q 586 44 440 44 q 764 99 700 44 l 764 274 q 669 350 764 333 q 618 358 639 356 l 618 406 l 1118 406 l 1118 358 z "},"H":{"ha":1268,"x_min":47,"x_max":1221,"o":"m 1221 0 l 701 0 l 701 47 l 751 51 q 796 58 782 54 q 839 121 839 75 l 839 392 l 429 392 l 429 128 q 472 65 429 82 q 567 47 507 51 l 567 0 l 47 0 l 47 47 q 144 60 114 50 q 188 122 188 74 l 188 357 q 104 439 157 394 q 188 521 114 442 l 188 735 q 157 790 188 772 q 93 811 139 801 q 47 818 61 817 l 47 867 l 567 867 l 567 818 q 472 803 514 815 q 429 740 429 790 l 429 496 l 839 496 l 839 735 q 749 810 839 790 q 701 818 719 817 l 701 867 l 1221 867 l 1221 818 q 1089 778 1107 813 q 1081 740 1081 761 l 1081 521 q 1164 439 1113 483 q 1081 357 1153 435 l 1081 128 q 1124 65 1081 82 q 1221 47 1157 51 l 1221 0 z "},"I":{"ha":619,"x_min":43,"x_max":576,"o":"m 576 0 l 43 0 l 43 47 l 97 51 q 146 58 132 54 q 189 121 189 75 l 189 358 q 92 439 124 429 q 189 521 121 447 l 189 735 q 148 796 189 781 q 43 818 107 811 l 43 867 l 576 867 l 576 818 q 501 811 514 813 q 439 779 450 801 q 431 740 431 763 l 431 521 q 528 439 499 447 q 431 357 497 429 l 431 128 q 474 65 431 82 q 576 47 510 51 l 576 0 z "},"J":{"ha":826,"x_min":11,"x_max":790,"o":"m 790 824 q 701 808 739 818 q 658 746 658 799 l 658 521 q 742 439 690 483 q 658 357 731 435 l 658 269 q 549 56 658 135 q 293 -18 444 -18 q 104 26 181 -18 q 11 188 11 82 q 48 283 11 247 q 144 319 85 319 q 236 291 199 319 q 274 211 274 263 q 175 78 274 149 l 175 69 q 243 40 190 40 q 417 251 417 40 l 417 357 q 333 439 386 394 q 417 521 343 442 l 417 740 q 374 803 417 786 q 276 824 339 815 l 276 871 l 790 871 l 790 824 z "},"K":{"ha":1135,"x_min":46,"x_max":1271,"o":"m 1271 -233 l 1214 -233 q 893 -106 1083 -108 l 801 0 l 624 210 q 464 400 575 271 l 429 400 l 429 128 q 472 65 429 82 q 557 47 501 53 l 557 0 l 46 0 l 46 47 q 144 58 85 49 q 188 121 188 74 l 188 357 q 104 439 157 394 q 188 521 114 442 l 188 735 q 93 811 188 794 q 46 818 64 817 l 46 867 l 574 867 l 574 818 q 472 804 539 815 q 429 740 429 790 l 429 449 l 457 449 q 690 654 615 579 q 794 794 794 760 q 696 818 794 814 l 696 867 l 1114 867 l 1114 818 q 1058 801 1085 815 q 1014 781 1022 782 q 913 708 993 772 q 793 606 840 650 l 671 496 l 1271 -233 z "},"L":{"ha":953,"x_min":47,"x_max":953,"o":"m 953 278 l 933 0 l 47 0 l 47 47 q 144 61 83 50 q 188 124 188 76 l 188 358 q 104 439 157 396 q 188 521 114 442 l 188 735 q 144 797 188 779 q 47 818 115 808 l 47 867 l 575 867 l 575 818 q 500 811 515 814 q 438 779 449 801 q 429 740 429 763 l 429 521 q 513 439 460 483 q 429 357 501 435 l 429 240 q 458 144 429 163 q 594 125 488 125 q 700 131 649 125 q 788 155 768 139 q 829 186 808 171 q 872 229 858 207 q 903 278 881 238 l 953 278 z "},"M":{"ha":1401,"x_min":24,"x_max":1368,"o":"m 1368 818 q 1242 779 1258 813 q 1232 740 1232 758 l 1232 -278 l 1181 -278 q 1161 -225 1171 -251 q 1125 -169 1147 -194 q 1036 -101 1069 -106 l 1036 761 l 749 14 l 622 14 q 592 94 617 35 l 553 190 l 324 771 l 324 258 q 371 86 324 121 q 432 61 389 72 q 479 47 450 56 l 479 0 l 24 0 l 24 47 q 65 56 32 50 q 164 136 149 69 q 174 251 174 176 l 174 681 q 131 786 174 757 q 75 811 104 806 q 31 818 63 814 l 31 867 l 474 867 l 711 294 l 931 867 l 1368 867 l 1368 818 z "},"N":{"ha":1165,"x_min":19,"x_max":1153,"o":"m 1153 818 q 1063 788 1100 814 q 1015 614 1015 757 l 1015 0 l 882 0 l 282 665 l 282 258 q 329 86 282 121 q 388 61 347 72 q 438 47 404 56 l 438 0 l 24 0 l 24 47 q 116 80 72 51 q 160 251 160 108 l 160 661 q 117 767 160 728 q 19 817 67 810 l 19 867 l 382 867 l 894 281 l 894 608 q 846 781 894 746 q 788 804 826 794 q 739 818 771 810 l 739 867 l 1153 867 l 1153 818 z "},"O":{"ha":1131,"x_min":-32,"x_max":1169,"o":"m 733 436 l 579 289 l 424 436 l 579 599 l 733 436 m 1169 446 q 1085 371 1157 442 q 954 118 1061 218 q 790 19 885 54 q 579 -17 694 -17 q 367 14 460 -17 q 89 244 172 78 q 51 364 76 272 q -32 438 19 399 q 51 511 -21 440 q 89 622 57 556 q 365 864 169 797 q 579 896 461 896 q 772 865 678 896 q 979 735 894 824 q 1086 519 1068 640 q 1169 446 1118 485 m 819 436 q 807 588 819 517 q 690 803 782 739 q 579 836 642 836 q 383 732 447 836 q 319 436 319 628 q 376 157 319 260 q 454 73 407 103 q 579 43 501 43 q 685 74 636 43 q 806 282 776 131 q 819 436 819 353 z "},"P":{"ha":974,"x_min":47,"x_max":949,"o":"m 949 650 q 683 388 949 440 q 507 374 606 374 l 429 374 l 428 -278 l 378 -278 q 308 -169 358 -228 q 188 -101 257 -111 l 188 357 q 104 439 157 394 q 188 521 114 442 l 188 735 q 158 792 188 774 q 94 811 140 803 q 47 818 63 817 l 47 867 l 578 867 q 949 650 949 867 m 685 618 q 633 756 685 721 q 485 783 593 783 l 429 783 l 429 444 l 457 444 q 626 476 586 444 q 685 618 685 522 z "},"Q":{"ha":1139,"x_min":-32,"x_max":1168,"o":"m 1168 439 q 1085 357 1157 435 q 979 135 1065 228 q 769 3 899 46 q 815 -118 772 -65 q 929 -175 861 -175 q 1051 -161 990 -175 l 1051 -215 q 778 -260 933 -260 q 590 -199 664 -260 q 507 -26 517 -137 q 182 108 310 -10 q 51 358 71 211 q -32 439 21 396 q 58 521 -12 444 q 200 758 89 663 q 569 883 344 883 q 936 764 789 883 q 1049 622 1007 706 q 1085 521 1076 567 q 1168 439 1117 483 m 819 428 q 767 701 819 600 q 569 824 703 824 q 365 686 428 824 q 319 424 319 585 q 376 144 319 247 q 569 29 442 29 q 761 144 700 29 q 819 428 819 250 z "},"R":{"ha":1107,"x_min":47,"x_max":1271,"o":"m 1271 -233 l 1214 -233 q 893 -106 1078 -108 l 801 0 q 465 390 628 214 l 429 390 l 429 128 q 472 65 429 82 q 560 47 503 53 l 560 0 l 47 0 l 47 47 q 144 61 83 50 q 188 124 188 78 l 188 357 q 104 439 157 394 q 188 521 114 442 l 188 735 q 144 797 188 781 q 47 818 113 808 l 47 867 l 586 867 q 956 661 956 867 q 721 428 956 490 l 1271 -233 m 690 644 q 636 771 690 731 q 482 797 600 797 l 429 797 l 429 463 l 481 463 q 635 494 596 463 q 690 644 690 542 z "},"S":{"ha":901,"x_min":43,"x_max":850,"o":"m 450 -21 q 157 46 286 -21 l 110 3 l 53 3 l 43 315 l 101 315 q 222 133 151 203 q 315 81 236 121 q 435 54 367 54 q 576 95 526 54 q 625 183 625 136 q 454 328 625 279 q 260 388 389 347 q 68 632 68 456 q 166 815 68 738 q 431 892 264 892 q 690 832 572 892 l 732 868 l 790 868 l 796 574 l 738 574 q 632 753 685 696 q 454 831 560 831 q 342 799 389 831 q 288 701 288 763 q 454 558 288 608 l 556 528 q 649 499 610 513 q 850 256 850 429 q 742 60 850 135 q 450 -21 629 -21 z "},"T":{"ha":950,"x_min":8,"x_max":942,"o":"m 942 618 l 889 618 q 875 656 882 636 q 850 696 869 668 q 736 764 806 756 q 628 769 685 769 l 596 769 l 596 521 q 651 475 608 507 q 707 439 693 443 q 651 403 693 435 q 596 357 608 371 l 596 0 l 354 0 l 354 357 q 301 401 342 371 q 243 439 257 435 q 301 476 257 443 q 354 521 342 507 l 354 769 l 322 769 q 214 764 265 769 q 101 696 144 756 q 61 618 79 667 l 8 618 l 8 867 l 942 867 l 942 618 z "},"U":{"ha":1157,"x_min":39,"x_max":1156,"o":"m 1156 824 q 1113 815 1146 822 q 1014 738 1031 801 q 1003 619 1003 699 l 1003 297 q 896 68 1003 154 q 599 -18 789 -18 q 281 65 393 -18 q 182 299 182 139 l 182 357 q 85 439 115 429 q 182 521 114 447 l 182 742 q 94 818 182 801 q 39 825 89 819 l 39 871 l 543 871 l 543 825 q 426 810 503 822 q 382 719 382 797 l 382 310 q 445 137 382 196 q 629 78 508 78 q 814 143 747 78 q 867 319 867 194 l 867 613 q 819 786 867 751 q 757 810 800 800 q 724 824 747 817 l 724 871 l 1156 871 l 1156 824 z "},"V":{"ha":1058,"x_min":-43,"x_max":1086,"o":"m 1086 813 q 1001 789 1040 810 q 971 757 988 782 q 939 708 954 732 l 589 -14 l 453 -14 l 121 713 q 44 790 96 764 q -43 814 10 808 l -43 863 l 436 863 l 436 815 q 311 776 311 801 q 321 742 311 765 q 442 467 364 632 q 568 194 554 225 q 682 451 636 347 l 763 638 q 801 761 801 729 q 769 794 801 781 q 745 806 758 800 q 696 813 732 811 l 696 863 l 1086 863 l 1086 813 z "},"W":{"ha":1564,"x_min":-28,"x_max":1590,"o":"m 1590 810 q 1464 752 1499 801 q 1393 585 1429 703 q 1338 407 1339 411 l 1175 -18 l 1025 -18 l 785 626 l 556 -18 l 406 -18 l 131 708 q 58 786 113 754 q -28 811 29 804 l -28 858 l 444 858 l 444 811 q 340 793 407 808 q 324 772 324 786 q 331 738 324 761 q 396 557 342 706 l 518 226 l 738 858 l 882 858 l 1136 207 q 1282 635 1226 460 q 1313 757 1313 728 q 1263 796 1313 781 q 1161 810 1236 803 l 1161 858 l 1590 858 l 1590 810 z "},"X":{"ha":1124,"x_min":6,"x_max":1271,"o":"m 1271 -233 l 1214 -233 q 893 -106 1078 -108 l 801 0 q 547 324 707 128 q 381 154 478 254 q 346 114 372 143 q 329 89 329 96 q 347 64 329 72 q 381 54 360 58 q 407 47 383 51 l 407 0 l 6 0 l 6 47 q 39 53 15 49 q 74 64 57 57 q 129 106 83 68 q 192 164 158 129 l 299 274 q 453 431 354 329 q 328 568 411 474 l 222 704 q 100 801 165 778 q 8 818 60 815 l 8 867 l 583 867 l 583 818 q 449 782 449 814 q 481 719 449 767 q 531 647 499 693 q 594 568 549 628 q 699 668 643 619 q 756 719 747 710 q 789 776 789 761 q 769 804 789 794 q 708 818 763 808 l 708 867 l 1083 867 l 1083 818 q 1069 814 1082 818 q 1032 803 1049 810 q 974 761 1015 796 q 815 604 925 717 q 690 475 775 563 l 1271 -233 z "},"Y":{"ha":1017,"x_min":-42,"x_max":1063,"o":"m 1063 818 q 1046 811 1061 817 q 955 758 993 796 q 818 581 917 719 q 713 431 785 533 q 639 324 679 386 q 631 256 631 296 l 631 -278 l 581 -278 q 510 -169 561 -228 q 390 -101 460 -111 l 390 279 q 385 339 390 326 q 368 369 381 351 l 339 417 q 144 711 240 571 q 50 799 104 771 q -42 818 18 815 l -42 867 l 482 867 l 482 818 q 353 788 353 815 q 399 699 353 775 q 465 590 413 675 q 572 440 499 546 q 736 683 621 510 q 783 772 783 756 q 771 805 783 799 q 706 818 758 811 l 706 867 l 1063 867 l 1063 818 z "},"Z":{"ha":957,"x_min":11,"x_max":947,"o":"m 947 292 l 915 0 l 11 0 l 11 38 l 269 358 q 186 439 238 396 q 296 476 219 449 q 401 521 392 511 l 619 740 l 408 740 q 315 738 344 740 q 249 724 271 732 q 218 713 233 718 q 183 686 199 704 q 117 601 171 676 l 63 601 l 92 867 l 929 867 l 929 829 l 681 521 q 765 439 713 483 q 550 357 572 382 l 349 125 l 578 125 q 689 128 665 125 q 792 164 767 135 q 850 228 810 179 q 897 292 864 242 l 947 292 z "},"\\":{"ha":656,"x_min":46,"x_max":636,"o":"m 636 -221 l 515 -221 l 46 967 l 169 967 l 636 -221 z "},"_":{"ha":976,"x_min":-3,"x_max":981,"o":"m 981 -204 l -3 -204 l -3 -122 l 981 -122 l 981 -204 z "},"a":{"ha":863,"x_min":-22,"x_max":881,"o":"m 881 0 l 472 0 l 472 38 q 582 67 582 46 q 576 89 582 72 l 532 221 l 278 221 q 257 185 271 213 q 226 97 243 153 q 224 81 224 86 q 250 54 224 65 q 293 38 251 47 l 293 0 l -22 0 l -22 38 q 54 54 28 40 q 117 124 96 78 l 167 232 q 100 297 142 263 q 167 328 114 301 q 226 364 219 354 l 243 399 l 383 703 l 492 703 l 658 331 q 761 104 719 190 q 881 38 789 43 l 881 0 m 510 308 l 421 560 l 311 308 l 510 308 z "},"b":{"ha":842,"x_min":38,"x_max":796,"o":"m 796 188 q 588 10 796 39 q 438 0 524 0 l 38 0 l 38 38 q 115 50 67 40 q 150 100 150 63 l 150 286 q 83 351 125 315 q 150 417 92 353 l 150 588 q 115 638 150 625 q 38 654 92 647 l 38 693 l 456 693 q 754 539 754 693 q 629 400 754 444 q 550 378 593 386 l 550 368 q 717 318 650 358 q 796 188 796 269 m 543 526 q 399 649 543 649 q 371 647 388 649 l 343 646 l 343 390 l 371 390 q 543 526 543 390 m 581 194 q 396 343 581 343 q 343 342 375 343 l 343 88 q 435 44 354 44 q 542 85 503 44 q 581 194 581 126 z "},"c":{"ha":813,"x_min":-12,"x_max":792,"o":"m 792 182 q 575 4 718 46 q 453 -11 522 -11 q 233 39 329 -11 q 81 199 128 94 q 54 290 61 242 q -12 356 29 319 q 56 422 -4 357 q 168 615 79 536 q 468 719 285 719 q 674 674 579 719 l 707 700 l 754 700 l 758 447 l 711 447 q 475 672 632 672 q 268 422 289 672 q 335 356 293 390 q 268 290 326 353 q 285 223 272 264 q 332 140 297 182 q 501 68 392 68 q 636 106 576 68 q 744 207 708 150 l 792 182 z "},"d":{"ha":938,"x_min":43,"x_max":896,"o":"m 896 342 q 754 82 896 174 q 433 0 626 0 l 44 0 l 44 38 q 122 47 104 40 q 157 97 157 60 l 157 286 q 90 351 132 317 q 157 417 99 353 l 157 588 q 122 640 157 625 q 43 654 96 651 l 43 693 l 453 693 q 758 610 638 693 q 896 342 896 514 m 678 342 q 613 566 678 483 q 429 649 549 649 q 386 647 411 649 l 350 646 l 350 121 q 404 50 350 67 q 451 44 422 44 q 628 125 572 44 q 678 342 678 200 z "},"e":{"ha":811,"x_min":43,"x_max":781,"o":"m 781 215 l 765 0 l 43 0 l 43 38 q 122 49 103 42 q 149 68 142 57 q 156 99 149 68 l 156 286 q 89 351 131 315 q 156 417 97 353 l 156 588 q 150 617 156 599 q 82 649 140 638 q 43 654 57 653 l 43 693 l 726 693 l 726 517 l 685 517 q 642 585 668 557 q 597 606 625 601 q 553 612 576 608 q 461 615 529 615 l 349 615 l 349 382 l 428 382 q 525 411 493 382 q 568 501 557 440 l 610 501 l 610 213 l 568 213 q 527 306 558 275 q 428 338 496 338 l 349 338 l 349 182 q 372 105 349 121 q 475 89 396 89 q 610 100 565 89 q 661 114 632 104 q 708 153 674 117 q 740 215 724 176 l 781 215 z "},"f":{"ha":786,"x_min":39,"x_max":731,"o":"m 731 508 l 689 508 q 644 583 672 551 q 557 622 617 615 q 464 626 518 626 l 344 626 l 344 376 l 421 376 q 520 408 486 376 q 561 497 554 439 l 603 497 l 603 206 l 561 206 q 546 257 560 225 q 519 301 532 289 q 421 332 489 332 l 344 332 l 343 -222 l 304 -222 q 248 -135 289 -182 q 151 -82 207 -89 l 151 286 q 85 351 126 315 q 151 417 93 353 l 151 588 q 76 649 151 633 q 39 654 51 653 l 39 693 l 731 693 l 731 508 z "},"g":{"ha":900,"x_min":-19,"x_max":900,"o":"m 900 288 q 838 275 865 283 q 801 224 801 265 l 801 143 q 800 0 801 -10 l 800 -222 l 761 -222 q 705 -135 746 -182 q 608 -82 664 -89 l 608 0 q 447 -14 551 -14 q 163 78 274 -14 q 47 286 65 158 q -19 351 22 317 q 47 418 -11 354 q 74 494 53 447 q 294 690 135 636 q 471 717 374 717 q 685 671 585 717 l 718 699 l 765 699 l 769 444 l 722 444 q 624 614 681 558 q 478 658 578 658 q 317 588 367 658 q 261 361 261 506 q 303 146 261 231 q 474 35 357 35 q 617 78 565 35 l 617 219 q 540 281 617 267 q 500 288 517 285 l 500 325 l 900 325 l 900 288 z "},"h":{"ha":1029,"x_min":44,"x_max":985,"o":"m 985 0 l 568 0 l 568 38 l 607 42 q 643 47 633 43 q 679 97 679 60 l 679 314 l 350 314 l 350 101 q 385 51 350 65 q 461 38 413 42 l 461 0 l 44 0 l 44 38 q 122 47 99 40 q 157 97 157 60 l 157 286 q 90 351 132 315 q 157 417 99 353 l 157 588 q 82 649 157 633 q 44 654 56 654 l 44 693 l 461 693 l 461 654 q 384 642 418 653 q 350 593 350 632 l 350 397 l 679 397 l 679 588 q 606 649 679 632 q 568 654 582 653 l 568 693 l 985 693 l 985 654 q 878 622 892 650 q 871 593 871 608 l 871 417 q 938 351 896 386 q 871 286 929 349 l 871 101 q 906 51 871 65 q 985 38 933 42 l 985 0 z "},"i":{"ha":511,"x_min":43,"x_max":469,"o":"m 469 0 l 43 0 l 43 38 l 86 42 q 125 47 115 43 q 160 97 160 60 l 160 286 q 93 351 135 317 q 160 417 101 353 l 160 588 q 127 637 160 625 q 43 654 94 649 l 43 693 l 469 693 l 469 654 q 410 649 419 650 q 361 626 369 642 q 353 593 353 610 l 353 417 q 419 351 378 386 q 353 286 411 349 l 353 101 q 388 51 353 65 q 469 38 417 42 l 469 0 z "},"j":{"ha":704,"x_min":35,"x_max":657,"o":"m 657 660 q 603 651 615 654 q 558 630 565 644 q 551 597 551 615 l 551 418 q 618 351 576 388 q 551 286 610 349 l 551 215 q 463 46 551 108 q 260 -14 381 -14 q 108 22 169 -14 q 35 150 35 65 q 64 227 35 199 q 140 256 93 256 q 213 235 183 256 q 244 169 244 210 q 165 63 244 119 l 165 56 q 219 32 176 32 q 358 201 358 32 l 358 286 q 292 351 333 317 q 358 417 300 354 l 358 593 q 285 653 358 639 q 246 660 261 657 l 246 697 l 657 697 l 657 660 z "},"k":{"ha":936,"x_min":44,"x_max":1024,"o":"m 1024 -186 l 979 -186 q 722 -85 874 -87 l 650 0 l 507 168 q 379 319 468 217 l 351 319 l 351 101 q 386 51 351 65 q 454 38 410 43 l 454 0 l 44 0 l 44 38 q 124 47 75 39 q 158 97 158 60 l 158 286 q 92 351 133 315 q 158 417 100 353 l 158 588 q 83 649 158 635 q 44 654 60 653 l 44 693 l 467 693 l 467 654 q 408 649 419 650 q 359 625 367 640 q 351 593 351 610 l 351 360 l 374 360 q 560 524 500 463 q 644 636 644 607 q 565 654 644 651 l 565 693 l 900 693 l 900 654 q 854 642 875 653 q 819 624 825 626 q 738 567 801 618 q 642 485 681 519 l 546 397 l 1024 -186 z "},"l":{"ha":790,"x_min":38,"x_max":761,"o":"m 761 222 l 747 0 l 38 0 l 38 38 q 115 49 67 40 q 150 99 150 61 l 150 286 q 83 351 125 317 q 150 417 92 353 l 150 588 q 115 638 150 624 q 38 654 92 647 l 38 693 l 460 693 l 460 654 q 400 649 413 651 q 351 625 360 640 q 343 593 343 610 l 343 417 q 410 351 368 386 q 343 286 401 349 l 343 193 q 367 115 343 131 q 476 100 390 100 q 560 104 519 100 q 631 125 614 111 q 699 183 654 139 q 722 222 704 190 l 761 222 z "},"m":{"ha":1156,"x_min":44,"x_max":1119,"o":"m 1119 654 q 1019 624 1032 650 q 1011 593 1011 607 l 1011 -222 l 971 -222 q 953 -178 963 -201 q 926 -136 943 -156 q 854 -82 881 -85 l 854 608 l 625 11 l 524 11 q 499 75 518 28 l 468 151 l 285 617 l 285 207 q 322 68 285 96 q 371 49 336 58 q 408 38 385 44 l 408 0 l 44 0 l 44 38 q 78 44 51 40 q 157 108 144 56 q 165 201 165 142 l 165 544 q 131 629 165 606 q 85 649 108 644 q 50 654 75 651 l 50 693 l 404 693 l 594 235 l 769 693 l 1119 693 l 1119 654 z "},"n":{"ha":965,"x_min":26,"x_max":932,"o":"m 932 654 q 860 631 890 651 q 822 492 822 606 l 822 0 l 715 0 l 236 532 l 236 207 q 274 68 236 96 q 321 50 289 57 q 360 38 333 44 l 360 0 l 29 0 l 29 38 q 103 63 68 40 q 139 201 139 86 l 139 529 q 104 613 139 582 q 26 654 64 647 l 26 693 l 315 693 l 725 224 l 725 486 q 688 625 725 597 q 640 644 672 636 q 601 654 628 649 l 601 693 l 932 693 l 932 654 z "},"o":{"ha":932,"x_min":-17,"x_max":944,"o":"m 596 349 l 472 231 l 347 349 l 472 479 l 596 349 m 944 356 q 878 297 935 353 q 772 94 858 174 q 641 15 717 43 q 472 -14 565 -14 q 303 11 376 -14 q 81 196 147 63 q 50 292 69 218 q -17 350 25 318 q 50 410 -7 353 q 81 499 56 444 q 301 690 146 638 q 472 717 378 717 q 626 692 551 717 q 792 588 725 658 q 878 415 864 513 q 944 356 903 388 m 664 349 q 656 469 664 413 q 561 642 635 590 q 472 669 522 669 q 316 585 367 669 q 265 349 265 501 q 311 126 265 208 q 372 58 335 82 q 472 33 410 33 q 557 58 518 33 q 654 226 631 104 q 664 349 664 282 z "},"p":{"ha":799,"x_min":39,"x_max":760,"o":"m 760 519 q 549 311 760 351 q 407 299 485 299 l 344 299 l 343 -222 l 304 -222 q 248 -135 289 -182 q 151 -82 207 -89 l 151 286 q 85 351 126 315 q 151 417 93 353 l 151 588 q 76 649 151 635 q 39 654 51 653 l 39 693 l 464 693 q 760 519 760 693 m 549 494 q 507 604 549 576 q 389 626 475 626 l 344 626 l 344 356 l 367 356 q 503 381 469 356 q 549 494 549 418 z "},"q":{"ha":939,"x_min":-10,"x_max":951,"o":"m 951 349 q 885 283 942 346 q 632 0 851 72 q 668 -97 633 -56 q 760 -143 706 -143 q 857 -132 808 -143 l 857 -175 q 638 -211 763 -211 q 488 -162 547 -211 q 422 -25 429 -114 q 83 193 174 -3 q 58 283 64 235 q -10 349 32 314 q 63 414 6 353 q 175 604 88 526 q 472 704 292 704 q 765 608 647 704 q 856 494 822 561 q 885 414 876 451 q 951 349 910 383 m 672 340 q 629 558 672 478 q 472 656 579 656 q 272 336 272 656 q 318 113 272 196 q 472 21 369 21 q 661 213 624 21 q 672 340 672 269 z "},"r":{"ha":878,"x_min":49,"x_max":1028,"o":"m 1028 -186 l 982 -186 q 725 -85 874 -87 l 653 0 q 383 313 514 171 l 354 313 l 354 101 q 389 51 354 65 q 460 38 413 43 l 460 0 l 49 0 l 49 38 q 126 49 78 40 q 161 99 161 61 l 161 286 q 94 351 136 315 q 161 417 103 353 l 161 588 q 126 638 161 625 q 49 654 101 647 l 49 693 l 481 693 q 775 529 775 693 q 588 343 775 392 l 1028 -186 m 563 515 q 519 617 563 585 q 397 635 496 635 l 354 635 l 354 372 l 396 372 q 519 396 492 372 q 563 515 563 433 z "},"s":{"ha":739,"x_min":54,"x_max":699,"o":"m 699 203 q 613 46 699 107 q 379 -18 522 -18 q 144 35 249 -18 l 107 0 l 61 0 l 54 250 l 101 250 q 271 51 165 104 q 367 31 313 31 q 471 56 429 31 q 519 144 519 86 q 383 261 519 221 q 228 308 331 275 q 74 503 74 363 q 152 650 74 589 q 364 711 231 711 q 572 664 476 711 l 604 693 l 651 693 l 657 457 l 610 457 q 525 600 568 556 q 382 663 467 663 q 293 638 331 663 q 250 560 250 608 q 382 444 250 485 l 464 421 q 569 385 536 399 q 658 321 626 360 q 699 203 699 274 z "},"t":{"ha":774,"x_min":13,"x_max":758,"o":"m 758 494 l 717 494 q 685 557 713 508 q 594 611 650 604 q 507 617 553 617 l 482 617 l 482 417 q 560 351 536 357 q 482 286 535 343 l 482 0 l 289 0 l 289 286 q 211 351 236 343 q 289 417 235 358 l 289 617 l 264 617 q 176 611 217 617 q 86 557 121 604 q 54 494 68 533 l 13 494 l 13 693 l 758 693 l 758 494 z "},"u":{"ha":919,"x_min":25,"x_max":918,"o":"m 918 660 q 885 653 911 658 q 807 597 825 643 q 797 496 797 571 l 797 239 q 712 56 797 125 q 474 -14 626 -14 q 219 53 310 -14 q 140 239 140 111 l 140 288 q 63 351 86 344 q 140 418 86 358 l 140 594 q 71 656 140 642 q 25 661 65 657 l 25 699 l 429 699 l 429 661 q 335 649 397 660 q 300 576 300 639 l 300 249 q 351 110 300 157 q 497 64 401 64 q 646 115 592 64 q 689 257 689 157 l 689 492 q 650 629 689 601 q 600 649 635 640 q 574 660 592 654 l 574 699 l 918 699 l 918 660 z "},"v":{"ha":867,"x_min":-17,"x_max":888,"o":"m 888 649 q 819 629 850 644 q 794 603 808 622 q 769 564 781 583 l 489 -14 l 379 -14 l 114 567 q 53 629 94 608 q -17 649 25 643 l -17 688 l 367 688 l 367 650 q 267 618 267 639 q 274 590 267 610 q 371 371 310 504 q 472 153 461 178 q 564 358 528 275 l 628 507 q 658 607 658 581 q 633 633 658 622 q 575 649 626 639 l 575 688 l 888 688 l 888 649 z "},"w":{"ha":1264,"x_min":-12,"x_max":1282,"o":"m 1282 647 q 1181 602 1208 642 q 1124 468 1153 563 q 1079 326 1081 329 l 950 -14 l 831 -14 l 638 501 l 454 -14 l 333 -14 l 114 567 q 57 629 100 604 q -12 649 32 643 l -12 686 l 365 686 l 365 650 q 282 635 336 647 q 268 618 268 629 q 274 590 268 608 q 326 446 282 565 l 425 182 l 600 686 l 715 686 l 918 167 q 1035 507 990 368 q 1060 606 1060 582 q 1019 636 1060 625 q 939 647 999 643 l 939 686 l 1282 686 l 1282 647 z "},"x":{"ha":926,"x_min":36,"x_max":1047,"o":"m 1047 -186 l 1001 -186 q 744 -85 893 -87 l 672 0 q 469 258 596 101 q 336 124 413 204 q 294 71 294 69 q 310 51 294 58 q 335 43 318 47 q 357 38 338 42 l 357 0 l 36 0 l 36 38 q 63 43 43 39 q 88 50 76 46 q 133 85 99 54 q 185 132 157 103 l 271 218 q 393 344 314 264 q 293 454 360 378 l 208 564 q 79 650 154 635 q 38 654 63 653 l 38 693 l 497 693 l 497 654 q 390 625 390 651 q 415 575 390 613 q 456 518 429 554 q 507 454 469 503 q 590 535 546 496 q 636 576 629 568 q 663 622 663 610 q 647 643 663 636 q 597 654 640 647 l 597 693 l 897 693 l 897 654 q 886 651 896 654 q 857 642 871 647 q 810 608 843 638 q 683 483 771 574 q 582 381 651 450 l 1047 -186 z "},"y":{"ha":851,"x_min":-14,"x_max":868,"o":"m 868 654 q 856 649 868 653 q 783 606 814 638 q 674 465 751 575 q 589 344 646 426 q 531 258 561 310 q 524 204 524 236 l 524 -222 l 483 -222 q 427 -135 468 -182 q 331 -82 386 -89 l 331 224 q 326 271 331 261 q 314 296 322 281 l 289 333 q 135 569 211 457 q 24 650 88 638 q -14 654 3 654 l -14 693 l 404 693 l 404 654 q 301 631 301 653 q 338 560 301 619 q 392 472 349 539 q 476 353 417 438 q 607 547 515 408 q 646 618 646 606 q 635 644 646 639 q 583 654 625 649 l 583 693 l 868 693 l 868 654 z "},"z":{"ha":786,"x_min":21,"x_max":769,"o":"m 769 233 l 743 0 l 21 0 l 21 29 l 228 286 q 161 351 203 317 q 332 417 313 396 l 507 593 l 339 593 q 264 590 288 593 q 210 579 228 586 q 185 568 199 574 q 158 549 171 563 q 106 482 147 542 l 61 482 l 85 693 l 756 693 l 756 663 l 557 417 q 624 351 582 386 q 451 286 469 306 l 290 100 l 474 100 q 646 131 618 100 q 692 182 660 143 q 729 233 703 193 l 769 233 z "},"¡":{"ha":710,"x_min":0,"x_max":0,"o":""},"¢":{"ha":707,"x_min":0,"x_max":0,"o":""},"£":{"ha":675,"x_min":0,"x_max":0,"o":""},"¤":{"ha":707,"x_min":0,"x_max":0,"o":""},"©":{"ha":682,"x_min":0,"x_max":0,"o":""},"®":{"ha":682,"x_min":0,"x_max":0,"o":""}}}
